<svg width="420" height="89" viewBox="0 0 420 89" fill="none" xmlns="http://www.w3.org/2000/svg">
  <path
    d="M23.5405 83.3383C20.0894 83.3383 16.9428 82.6718 14.1007 81.339C11.2586 80.0065 8.9965 78.0365 7.31446 75.4291C5.66141 72.7925 4.83487 69.5624 4.83487 65.7379V46.5734H19.9734V64.8254C19.9734 66.1581 20.2344 67.23 20.7564 68.0411C21.3074 68.8526 22.1774 69.2582 23.3665 69.2582C25.6575 69.2582 26.8031 67.853 26.8031 65.0428V6.15848H42.246V63.5218C42.246 67.5777 41.4486 71.0976 39.8535 74.0817C38.2585 77.0368 36.0545 79.3257 33.2414 80.948C30.4282 82.5415 27.1946 83.3383 23.5405 83.3383ZM48.1622 82.6429V6.15848H78.7872V20.9339H63.7356V35.8397H78.1782V50.224H63.7356V67.7369H79.7879V82.6429H48.1622ZM84.8775 82.6429V6.15848H108.368C112.284 6.15848 115.242 7.05658 117.243 8.85283C119.244 10.6201 120.578 13.1116 121.245 16.3274C121.941 19.5143 122.289 23.2661 122.289 27.5828C122.289 31.7547 121.752 35.0863 120.679 37.578C119.635 40.0694 117.649 41.7931 114.719 42.7492C117.127 43.2419 118.808 44.4441 119.766 46.3563C120.752 48.2393 121.245 50.6874 121.245 53.7004V82.6429H106.15V52.701C106.15 50.4703 105.686 49.094 104.758 48.5724C103.859 48.0222 102.394 47.7469 100.364 47.7469V82.6429H84.8775ZM100.451 34.4926H104.149C106.266 34.4926 107.324 32.1894 107.324 27.5828C107.324 24.5987 107.092 22.6432 106.628 21.7161C106.164 20.789 105.294 20.3255 104.018 20.3255H100.451V34.4926ZM125.247 82.6429L132.642 6.15848H158.612L165.877 82.6429H151.391L150.304 70.3011H141.081L140.124 82.6429H125.247ZM142.169 58.0897H149.129L145.779 19.1956H145.084L142.169 58.0897Z"
    fill="black" />
  <path
    d="M7.31446 75.4291L5.9661 76.2727L5.97717 76.2898L7.31446 75.4291ZM4.83487 46.5734V44.9841H3.24396V46.5734H4.83487ZM19.9734 46.5734H21.5643V44.9841H19.9734V46.5734ZM20.7564 68.0411L19.4177 68.9009L19.44 68.9337L20.7564 68.0411ZM26.8031 6.15847V4.56918H25.2122V6.15847H26.8031ZM42.246 6.15847H43.8369V4.56918H42.246V6.15847ZM39.8535 74.0817L41.2539 74.8359L41.2567 74.8305L39.8535 74.0817ZM33.2414 80.948L34.026 82.3307L34.0369 82.3243L33.2414 80.948ZM23.5405 81.749C20.2996 81.749 17.387 81.1244 14.7766 79.9004L13.4247 82.7779C16.4986 84.2191 19.8791 84.9276 23.5405 84.9276V81.749ZM14.7766 79.9004C12.2017 78.6931 10.1701 76.9217 8.65171 74.568L5.97717 76.2898C7.82291 79.1509 10.3154 81.3199 13.4247 82.7779L14.7766 79.9004ZM8.66272 74.5855C7.20106 72.2543 6.42578 69.3323 6.42578 65.7379H3.24396C3.24396 69.7922 4.12166 73.3309 5.9661 76.2727L8.66272 74.5855ZM6.42578 65.7379V46.5734H3.24396V65.7379H6.42578ZM4.83487 48.1627H19.9734V44.9841H4.83487V48.1627ZM18.3824 46.5734V64.8254H21.5643V46.5734H18.3824ZM18.3824 64.8254C18.3824 66.3508 18.679 67.7531 19.4177 68.9009L22.0946 67.182C21.7893 66.7074 21.5643 65.9655 21.5643 64.8254H18.3824ZM19.44 68.9337C20.3521 70.2766 21.7775 70.8475 23.3665 70.8475V67.6689C22.5774 67.6689 22.2628 67.4286 22.0728 67.1489L19.44 68.9337ZM23.3665 70.8475C24.8534 70.8475 26.2256 70.3755 27.1775 69.208C28.0785 68.1028 28.394 66.6228 28.394 65.0428H25.2122C25.2122 66.2729 24.9549 66.9006 24.7104 67.2007C24.5168 67.4381 24.1706 67.6689 23.3665 67.6689V70.8475ZM28.394 65.0428V6.15847H25.2122V65.0428H28.394ZM26.8031 7.74775H42.246V4.56918H26.8031V7.74775ZM40.655 6.15847V63.5218H43.8369V6.15847H40.655ZM40.655 63.5218C40.655 67.3682 39.8997 70.6212 38.45 73.3331L41.2567 74.8305C42.9972 71.5744 43.8369 67.7871 43.8369 63.5218H40.655ZM38.4532 73.3274C36.9931 76.0327 34.9943 78.1019 32.446 79.5717L34.0369 82.3243C37.1143 80.5494 39.5239 78.0412 41.2539 74.8359L38.4532 73.3274ZM32.4565 79.5653C29.9126 81.0065 26.9559 81.749 23.5405 81.749V84.9276C27.4333 84.9276 30.9438 84.0767 34.026 82.3307L32.4565 79.5653ZM48.1622 82.6428H46.5713V84.2321H48.1622V82.6428ZM48.1622 6.15847V4.56918H46.5713V6.15847H48.1622ZM78.7872 6.15847H80.3781V4.56918H78.7872V6.15847ZM78.7872 20.9339V22.5232H80.3781V20.9339H78.7872ZM63.7356 20.9339V19.3446H62.1447V20.9339H63.7356ZM63.7356 35.8396H62.1447V37.4289H63.7356V35.8396ZM78.1782 35.8396H79.7691V34.2504H78.1782V35.8396ZM78.1782 50.224V51.8132H79.7691V50.224H78.1782ZM63.7356 50.224V48.6347H62.1447V50.224H63.7356ZM63.7356 67.7369H62.1447V69.3262H63.7356V67.7369ZM79.7879 67.7369H81.3788V66.1476H79.7879V67.7369ZM79.7879 82.6428V84.2321H81.3788V82.6428H79.7879ZM49.7531 82.6428V6.15847H46.5713V82.6428H49.7531ZM48.1622 7.74775H78.7872V4.56918H48.1622V7.74775ZM77.1963 6.15847V20.9339H80.3781V6.15847H77.1963ZM78.7872 19.3446H63.7356V22.5232H78.7872V19.3446ZM62.1447 20.9339V35.8396H65.3265V20.9339H62.1447ZM63.7356 37.4289H78.1782V34.2504H63.7356V37.4289ZM76.5873 35.8396V50.224H79.7691V35.8396H76.5873ZM78.1782 48.6347H63.7356V51.8132H78.1782V48.6347ZM62.1447 50.224V67.7369H65.3265V50.224H62.1447ZM63.7356 69.3262H79.7879V66.1476H63.7356V69.3262ZM78.197 67.7369V82.6428H81.3788V67.7369H78.197ZM79.7879 81.0536H48.1622V84.2321H79.7879V81.0536ZM84.8775 82.6428H83.2866V84.2321H84.8775V82.6428ZM84.8775 6.15847V4.56918H83.2866V6.15847H84.8775ZM117.243 8.85282L116.179 10.035L116.189 10.0435L117.243 8.85282ZM121.245 16.3274L119.687 16.6499L119.69 16.6662L121.245 16.3274ZM120.679 37.578L119.218 36.9499L119.212 36.9642L120.679 37.578ZM114.719 42.7492L114.225 41.2385L108.516 43.1024L114.4 44.3061L114.719 42.7492ZM119.766 46.3563L118.342 47.067L118.356 47.0927L119.766 46.3563ZM121.245 82.6428V84.2321H122.836V82.6428H121.245ZM106.15 82.6428H104.559V84.2321H106.15V82.6428ZM104.758 48.5724L103.926 49.9277L103.952 49.943L103.978 49.9576L104.758 48.5724ZM100.364 47.7469V46.1576H98.7732V47.7469H100.364ZM100.364 82.6428V84.2321H101.955V82.6428H100.364ZM100.451 34.4926H98.86V36.0819H100.451V34.4926ZM100.451 20.3255V18.7362H98.86V20.3255H100.451ZM86.4685 82.6428V6.15847H83.2866V82.6428H86.4685ZM84.8775 7.74775H108.368V4.56918H84.8775V7.74775ZM108.368 7.74775C112.067 7.74775 114.579 8.59847 116.179 10.035L118.306 7.67064C115.904 5.51471 112.5 4.56918 108.368 4.56918V7.74775ZM116.189 10.0435C117.878 11.5351 119.073 13.6911 119.687 16.6499L122.803 16.005C122.082 12.5321 120.609 9.70506 118.296 7.66209L116.189 10.0435ZM119.69 16.6662C120.356 19.7127 120.698 23.3458 120.698 27.5828H123.88C123.88 23.1864 123.526 19.3158 122.799 15.9886L119.69 16.6662ZM120.698 27.5828C120.698 31.6431 120.172 34.7341 119.218 36.9499L122.14 38.2061C123.332 35.4385 123.88 31.8661 123.88 27.5828H120.698ZM119.212 36.9642C118.372 38.9674 116.783 40.4038 114.225 41.2385L115.214 44.26C118.514 43.1828 120.898 41.1714 122.147 38.1915L119.212 36.9642ZM114.4 44.3061C116.409 44.7174 117.638 45.6595 118.342 47.067L121.188 45.6455C119.979 43.2289 117.844 41.7664 115.039 41.1924L114.4 44.3061ZM118.356 47.0927C119.184 48.6738 119.654 50.8435 119.654 53.7004H122.836C122.836 50.5313 122.32 47.8051 121.175 45.6195L118.356 47.0927ZM119.654 53.7004V82.6428H122.836V53.7004H119.654ZM121.245 81.0536H106.15V84.2321H121.245V81.0536ZM107.741 82.6428V52.701H104.559V82.6428H107.741ZM107.741 52.701C107.741 51.4954 107.618 50.4029 107.309 49.4884C106.998 48.5651 106.453 47.7014 105.538 47.1875L103.978 49.9576C103.991 49.9649 104.141 50.0504 104.294 50.503C104.45 50.9646 104.559 51.6759 104.559 52.701H107.741ZM105.589 47.2173C104.299 46.4278 102.461 46.1576 100.364 46.1576V49.3362C102.327 49.3362 103.418 49.6165 103.926 49.9277L105.589 47.2173ZM98.7732 47.7469V82.6428H101.955V47.7469H98.7732ZM100.364 81.0536H84.8775V84.2321H100.364V81.0536ZM100.451 36.0819H104.149V32.9033H100.451V36.0819ZM104.149 36.0819C104.986 36.0819 105.782 35.8476 106.473 35.3467C107.146 34.8581 107.63 34.1811 107.976 33.4281C108.65 31.9618 108.915 29.9577 108.915 27.5828H105.733C105.733 29.8143 105.469 31.265 105.085 32.102C104.901 32.5006 104.724 32.6871 104.603 32.7746C104.5 32.8496 104.37 32.9033 104.149 32.9033V36.0819ZM108.915 27.5828C108.915 26.0565 108.856 24.7538 108.73 23.691C108.608 22.6644 108.409 21.721 108.051 21.0053L105.205 22.4268C105.311 22.6382 105.46 23.1362 105.57 24.0651C105.676 24.9579 105.733 26.125 105.733 27.5828H108.915ZM108.051 21.0053C107.25 19.4055 105.73 18.7362 104.018 18.7362V21.9147C104.858 21.9147 105.078 22.1725 105.205 22.4268L108.051 21.0053ZM104.018 18.7362H100.451V21.9147H104.018V18.7362ZM98.86 20.3255V34.4926H102.042V20.3255H98.86ZM125.247 82.6428L123.663 82.49L123.495 84.2321H125.247V82.6428ZM132.642 6.15847V4.56918H131.198L131.058 6.00568L132.642 6.15847ZM158.612 6.15847L160.196 6.00835L160.059 4.56918H158.612V6.15847ZM165.877 82.6428V84.2321H167.626L167.461 82.4928L165.877 82.6428ZM151.391 82.6428L149.806 82.7821L149.934 84.2321H151.391V82.6428ZM150.304 70.3011L151.889 70.1615L151.761 68.7118H150.304V70.3011ZM141.081 70.3011V68.7118H139.609L139.495 70.1784L141.081 70.3011ZM140.124 82.6428V84.2321H141.597L141.711 82.7655L140.124 82.6428ZM142.169 58.0896L140.582 57.9711L140.454 59.6789H142.169V58.0896ZM149.129 58.0896V59.6789H150.863L150.714 57.9533L149.129 58.0896ZM145.779 19.1956L147.365 19.0593L147.239 17.6063H145.779V19.1956ZM145.084 19.1956V17.6063H143.607L143.497 19.0769L145.084 19.1956ZM126.83 82.7957L134.226 6.31126L131.058 6.00568L123.663 82.49L126.83 82.7957ZM132.642 7.74775H158.612V4.56918H132.642V7.74775ZM157.028 6.30859L164.293 82.7929L167.461 82.4928L160.196 6.00835L157.028 6.30859ZM165.877 81.0536H151.391V84.2321H165.877V81.0536ZM152.976 82.5036L151.889 70.1615L148.719 70.4403L149.806 82.7821L152.976 82.5036ZM150.304 68.7118H141.081V71.8904H150.304V68.7118ZM139.495 70.1784L138.538 82.5201L141.711 82.7655L142.668 70.4238L139.495 70.1784ZM140.124 81.0536H125.247V84.2321H140.124V81.0536ZM142.169 59.6789H149.129V56.5004H142.169V59.6789ZM150.714 57.9533L147.365 19.0593L144.194 19.3318L147.544 58.2257L150.714 57.9533ZM145.779 17.6063H145.084V20.7849H145.779V17.6063ZM143.497 19.0769L140.582 57.9711L143.755 58.2082L146.67 19.3142L143.497 19.0769Z"
    fill="black" />
  <path
    d="M172.029 82.6428H170.439V84.2321H172.029V82.6428ZM172.029 6.15847V4.56918H170.439V6.15847H172.029ZM195.346 6.15847L196.922 5.94131L196.733 4.56918H195.346V6.15847ZM201.785 52.7878L200.209 53.0049L203.36 53.0036L201.785 52.7878ZM208.179 6.15847V4.56918H206.791L206.603 5.94274L208.179 6.15847ZM231.713 6.15847H233.304V4.56918H231.713V6.15847ZM231.713 82.6428V84.2321H233.304V82.6428H231.713ZM217.706 82.6428H216.115V84.2321H217.706V82.6428ZM217.706 27.5393H219.297L216.135 27.2893L217.706 27.5393ZM208.919 82.6428V84.2321H210.276L210.49 82.893L208.919 82.6428ZM195.172 82.6428L193.603 82.9073L193.827 84.2321H195.172V82.6428ZM185.863 27.5393L187.432 27.2748L184.272 27.5393H185.863ZM185.863 82.6428V84.2321H187.454V82.6428H185.863ZM173.62 82.6428V6.15847H170.439V82.6428H173.62ZM172.029 7.74775H195.346V4.56918H172.029V7.74775ZM193.77 6.37563L200.209 53.0049L203.36 52.5707L196.922 5.94131L193.77 6.37563ZM203.36 53.0036L209.755 6.3742L206.603 5.94274L200.208 52.5723L203.36 53.0036ZM208.179 7.74775H231.713V4.56918H208.179V7.74775ZM230.122 6.15847V82.6428H233.304V6.15847H230.122ZM231.713 81.0536H217.706V84.2321H231.713V81.0536ZM219.297 82.6428V27.5393H216.115V82.6428H219.297ZM216.135 27.2893L207.348 82.3927L210.49 82.893L219.277 27.7893L216.135 27.2893ZM208.919 81.0536H195.172V84.2321H208.919V81.0536ZM196.741 82.3784L187.432 27.2748L184.294 27.8038L193.603 82.9073L196.741 82.3784ZM184.272 27.5393V82.6428H187.454V27.5393H184.272ZM185.863 81.0536H172.029V84.2321H185.863V81.0536ZM242.719 77.819L241.517 78.8603L241.526 78.8702L242.719 77.819ZM242.676 10.5476L241.522 9.45379L241.517 9.459L242.676 10.5476ZM270.821 10.5476L269.662 11.6363L269.667 11.6415L270.821 10.5476ZM254.03 67.7369L252.639 68.509L252.648 68.5255L254.03 67.7369ZM256.77 81.749C250.986 81.749 246.787 80.0237 243.912 76.7679L241.526 78.8702C245.148 82.9731 250.316 84.9276 256.77 84.9276V81.749ZM243.921 76.7777C241.041 73.4599 239.481 68.5427 239.481 61.7835H236.3C236.3 68.9883 237.959 74.7616 241.517 78.8603L243.921 76.7777ZM239.481 61.7835V25.4534H236.3V61.7835H239.481ZM239.481 25.4534C239.481 19.1451 241.018 14.6295 243.835 11.6363L241.517 9.459C237.954 13.2451 236.3 18.6667 236.3 25.4534H239.481ZM243.83 11.6415C246.661 8.66048 250.883 7.05244 256.77 7.05244V3.87387C250.303 3.87387 245.129 5.65549 241.522 9.45379L243.83 11.6415ZM256.77 7.05244C262.658 7.05244 266.862 8.6608 269.662 11.6363L271.98 9.459C268.4 5.65517 263.237 3.87387 256.77 3.87387V7.05244ZM269.667 11.6415C272.51 14.6349 274.059 19.1485 274.059 25.4534H277.241C277.241 18.6633 275.571 13.2396 271.975 9.45379L269.667 11.6415ZM274.059 25.4534V61.7835H277.241V25.4534H274.059ZM274.059 61.7835C274.059 68.5395 272.486 73.4545 269.581 76.7727L271.975 78.8657C275.565 74.767 277.241 68.9915 277.241 61.7835H274.059ZM269.581 76.7727C266.737 80.0231 262.555 81.749 256.77 81.749V84.9276C263.224 84.9276 268.381 82.9741 271.975 78.8657L269.581 76.7727ZM256.901 70.8475C257.749 70.8475 258.564 70.6383 259.286 70.172C260.001 69.7108 260.535 69.0567 260.925 68.303C261.679 66.8418 261.972 64.8527 261.972 62.5222H258.79C258.79 64.6823 258.502 66.0609 258.097 66.8453C257.906 67.2141 257.716 67.4019 257.56 67.502C257.413 67.5974 257.212 67.6689 256.901 67.6689V70.8475ZM261.972 62.5222V25.1926H258.79V62.5222H261.972ZM261.972 25.1926C261.972 23.2025 261.682 21.4456 260.897 20.1379C260.034 18.7009 258.658 17.954 256.988 17.954V21.1325C257.58 21.1325 257.9 21.3272 258.168 21.7733C258.514 22.3487 258.79 23.4166 258.79 25.1926H261.972ZM256.988 17.954C255.243 17.954 253.757 18.6513 252.79 20.1112C251.899 21.4559 251.569 23.2715 251.569 25.323H254.751C254.751 23.5213 255.058 22.4471 255.443 21.8652C255.753 21.3984 256.18 21.1325 256.988 21.1325V17.954ZM251.569 25.323V62.6093H254.751V25.323H251.569ZM251.569 62.6093C251.569 65.0367 251.852 67.0933 252.639 68.509L255.42 66.9652C255.048 66.2951 254.751 64.9328 254.751 62.6093H251.569ZM252.648 68.5255C253.557 70.1135 255.093 70.8475 256.901 70.8475V67.6689C256.041 67.6689 255.663 67.3889 255.411 66.9486L252.648 68.5255ZM288.874 82.6428L287.295 82.8374L287.467 84.2321H288.874V82.6428ZM279.435 6.11502V4.52573H277.636L277.855 6.30939L279.435 6.11502ZM294.007 6.11502L295.589 5.94487L295.436 4.52573H294.007V6.11502ZM299.619 58.1764L298.037 58.3468L301.203 58.3284L299.619 58.1764ZM304.622 6.11502V4.52573H303.176L303.038 5.96315L304.622 6.11502ZM319.194 6.11502L320.775 6.30939L320.995 4.52573H319.194V6.11502ZM309.755 82.6428V84.2321H311.162L311.334 82.8374L309.755 82.6428ZM290.453 82.4483L281.013 5.92065L277.855 6.30939L287.295 82.8374L290.453 82.4483ZM279.435 7.7043H294.007V4.52573H279.435V7.7043ZM292.426 6.28517L298.037 58.3468L301.201 58.0064L295.589 5.94487L292.426 6.28517ZM301.203 58.3284L306.205 6.26689L303.038 5.96315L298.035 58.0248L301.203 58.3284ZM304.622 7.7043H319.194V4.52573H304.622V7.7043ZM317.616 5.92065L308.176 82.4483L311.334 82.8374L320.775 6.30939L317.616 5.92065ZM309.755 81.0536H288.874V84.2321H309.755V81.0536ZM322.98 82.6428H321.389V84.2321H322.98V82.6428ZM322.98 6.15847V4.56918H321.389V6.15847H322.98ZM337.769 6.15847H339.36V4.56918H337.769V6.15847ZM337.769 82.6428V84.2321H339.36V82.6428H337.769ZM324.571 82.6428V6.15847H321.389V82.6428H324.571ZM322.98 7.74775H337.769V4.56918H322.98V7.74775ZM336.178 6.15847V82.6428H339.36V6.15847H336.178ZM337.769 81.0536H322.98V84.2321H337.769V81.0536ZM343.859 82.6428H342.268V84.2321H343.859V82.6428ZM343.859 6.15847V4.56918H342.268V6.15847H343.859ZM374.484 6.15847H376.075V4.56918H374.484V6.15847ZM374.484 20.9339V22.5232H376.075V20.9339H374.484ZM359.434 20.9339V19.3446H357.843V20.9339H359.434ZM359.434 35.8396H357.843V37.4289H359.434V35.8396ZM373.876 35.8396H375.467V34.2504H373.876V35.8396ZM373.876 50.224V51.8132H375.467V50.224H373.876ZM359.434 50.224V48.6347H357.843V50.224H359.434ZM359.434 67.7369H357.843V69.3262H359.434V67.7369ZM375.486 67.7369H377.077V66.1476H375.486V67.7369ZM375.486 82.6428V84.2321H377.077V82.6428H375.486ZM345.45 82.6428V6.15847H342.268V82.6428H345.45ZM343.859 7.74775H374.484V4.56918H343.859V7.74775ZM372.893 6.15847V20.9339H376.075V6.15847H372.893ZM374.484 19.3446H359.434V22.5232H374.484V19.3446ZM357.843 20.9339V35.8396H361.025V20.9339H357.843ZM359.434 37.4289H373.876V34.2504H359.434V37.4289ZM372.285 35.8396V50.224H375.467V35.8396H372.285ZM373.876 48.6347H359.434V51.8132H373.876V48.6347ZM357.843 50.224V67.7369H361.025V50.224H357.843ZM359.434 69.3262H375.486V66.1476H359.434V69.3262ZM373.895 67.7369V82.6428H377.077V67.7369H373.895ZM375.486 81.0536H343.859V84.2321H375.486V81.0536ZM383.619 78.1232L382.429 79.1753L382.432 79.1811L383.619 78.1232ZM379.009 54.0481V52.4588H377.418V54.0481H379.009ZM394.148 54.0481H395.739V52.4588H394.148V54.0481ZM394.93 67.7805L393.515 68.5074L393.527 68.5319L393.543 68.5557L394.93 67.7805ZM400.629 68.0411L399.312 67.1486L399.293 67.182L400.629 68.0411ZM400.76 58.1764L399.232 58.6205L399.235 58.6281L400.76 58.1764ZM398.325 53.6571L397.069 54.6349L397.091 54.6619L398.325 53.6571ZM393.581 48.6159L392.487 49.7685L392.49 49.7723L393.581 48.6159ZM386.709 42.0973L387.803 40.9448L387.8 40.9416L386.709 42.0973ZM383.533 10.5911L382.346 9.53459L382.34 9.54025L383.533 10.5911ZM411.635 11.0691L410.381 12.0489L410.388 12.0548L411.635 11.0691ZM416.074 28.1043V29.6936H417.665V28.1043H416.074ZM400.499 28.1043H398.908V29.6936H400.499V28.1043ZM399.585 20.4124L398.459 21.5365L398.488 21.5632L399.585 20.4124ZM394.495 20.5862L393.273 19.5688L393.27 19.574L394.495 20.5862ZM397.975 30.9724L399.08 29.8263L399.07 29.8197L397.975 30.9724ZM406.808 39.4467L405.704 40.5926L405.71 40.5983L406.808 39.4467ZM411.68 44.7918L410.426 45.7727L410.435 45.7822L411.68 44.7918ZM415.246 51.3104L413.748 51.8492L413.751 51.8549L415.246 51.3104ZM398.758 81.749C391.997 81.749 387.485 80.065 384.809 77.0657L382.432 79.1811C385.961 83.1349 391.545 84.9276 398.758 84.9276V81.749ZM384.812 77.0711C382.114 74.021 380.6 68.9565 380.6 61.5228H377.418C377.418 69.27 378.977 75.2727 382.429 79.1753L384.812 77.0711ZM380.6 61.5228V54.0481H377.418V61.5228H380.6ZM379.009 55.6374H394.148V52.4588H379.009V55.6374ZM392.557 54.0481V63.6086H395.739V54.0481H392.557ZM392.557 63.6086C392.557 65.5027 392.83 67.1785 393.515 68.5074L396.346 67.0535C395.987 66.3546 395.739 65.2491 395.739 63.6086H392.557ZM393.543 68.5557C394.431 70.1434 395.974 70.8475 397.759 70.8475V67.6689C396.875 67.6689 396.534 67.3876 396.321 67.0052L393.543 68.5557ZM397.759 70.8475C399.433 70.8475 401.036 70.3484 401.969 68.9006L399.293 67.182C399.178 67.3565 398.87 67.6689 397.759 67.6689V70.8475ZM401.946 68.9337C402.774 67.7128 403.047 65.9744 403.047 64.0431H399.865C399.865 65.8202 399.585 66.7471 399.312 67.1486L401.946 68.9337ZM403.047 64.0431C403.047 61.6045 402.809 59.4847 402.287 57.7251L399.235 58.6281C399.64 59.9971 399.865 61.7885 399.865 64.0431H403.047ZM402.287 57.7327C401.759 55.9139 400.836 54.2197 399.557 52.6521L397.091 54.6619C398.131 55.9336 398.835 57.2524 399.232 58.6205L402.287 57.7327ZM399.579 52.6794C398.38 51.1438 396.735 49.402 394.673 47.4596L392.49 49.7723C394.488 51.6543 396.006 53.2735 397.069 54.6349L399.579 52.6794ZM394.679 47.4634L387.803 40.9448L385.614 43.2502L392.487 49.7685L394.679 47.4634ZM387.8 40.9416C382.941 36.36 380.6 31.2285 380.6 25.4968H377.418C377.418 32.2228 380.211 38.1584 385.617 43.2533L387.8 40.9416ZM380.6 25.4968C380.6 19.2006 382.057 14.6668 384.726 11.6419L382.34 9.54025C378.977 13.3526 377.418 18.756 377.418 25.4968H380.6ZM384.723 11.6476C387.393 8.65044 391.303 7.05244 396.715 7.05244V3.87387C390.641 3.87387 385.767 5.69449 382.346 9.53459L384.723 11.6476ZM396.715 7.05244C403.486 7.05244 407.877 8.85301 410.381 12.0489L412.889 10.0894C409.535 5.81061 403.98 3.87387 396.715 3.87387V7.05244ZM410.388 12.0548C413.025 15.3871 414.483 20.6428 414.483 28.1043H417.665C417.665 20.3269 416.163 14.2257 412.882 10.0834L410.388 12.0548ZM416.074 26.515H400.499V29.6936H416.074V26.515ZM402.09 28.1043V22.846H398.908V28.1043H402.09ZM402.09 22.846C402.09 21.4801 401.679 20.2103 400.683 19.2615L398.488 21.5632C398.71 21.7733 398.908 22.1259 398.908 22.846H402.09ZM400.712 19.2886C399.764 18.3436 398.523 17.954 397.193 17.954V21.1325C397.893 21.1325 398.246 21.3225 398.459 21.5365L400.712 19.2886ZM397.193 17.954C395.675 17.954 394.253 18.3968 393.273 19.5688L395.716 21.6036C395.901 21.385 396.273 21.1325 397.193 21.1325V17.954ZM393.27 19.574C392.43 20.5885 392.08 21.8437 392.08 23.1936H395.261C395.261 22.3997 395.459 21.9166 395.723 21.5984L393.27 19.574ZM392.08 23.1936C392.08 24.5527 392.445 25.9418 393.098 27.3404L395.98 25.9999C395.471 24.9071 395.261 23.9784 395.261 23.1936H392.08ZM393.098 27.3404C393.801 28.8525 395.112 30.4493 396.881 32.1252L399.07 29.8197C397.415 28.2507 396.439 26.9794 395.98 25.9999L393.098 27.3404ZM396.875 32.1185L405.704 40.5926L407.909 38.3005L399.08 29.8263L396.875 32.1185ZM405.71 40.5983C407.425 42.2267 408.997 43.9514 410.426 45.7727L412.93 43.8109C411.403 41.8659 409.726 40.0271 407.903 38.2948L405.71 40.5983ZM410.435 45.7822C411.794 47.4856 412.901 49.5021 413.748 51.8492L416.742 50.7713C415.79 48.1356 414.521 45.8061 412.924 43.8013L410.435 45.7822ZM413.751 51.8549C414.569 54.0926 415.005 56.9094 415.005 60.3493H418.186C418.186 56.6625 417.722 53.4531 416.742 50.7659L413.751 51.8549ZM415.005 60.3493C415.005 67.3634 413.697 72.6542 411.26 76.3858L413.926 78.1226C416.825 73.6844 418.186 67.7051 418.186 60.3493H415.005ZM411.26 76.3858C409.013 79.8368 405.017 81.749 398.758 81.749V84.9276C405.666 84.9276 410.894 82.7833 413.926 78.1226L411.26 76.3858Z"
    fill="black" />
</svg>